<?xml version="1.0" encoding="utf-8"?>
<!-- Generated by Mocodo 4.2.12 -->
<svg width="475" height="583" viewBox="0 0 475 583" xmlns="http://www.w3.org/2000/svg">
<rect x="0" y="0" width="475" height="583" fill="#f7f7f7" stroke="none" stroke-width="0"/>

<!-- Association PERMISSION -->
<g>
	<line x1="240" y1="227" x2="240" y2="109" stroke="#e08214" stroke-width="2"/>
	<line x1="240" y1="34" x2="240" y2="109" stroke="#e08214" stroke-width="2"/>
	<g>
		<path d="M266 84 a14 14 90 0 1 14 14 V109 h-80 V98 a14 14 90 0 1 14 -14" fill="#fdb863" stroke="#fdb863" stroke-width="0"/>
		<path d="M280 109 v11 a14 14 90 0 1 -14 14 H214 a14 14 90 0 1 -14 -14 V109 H80" fill="#fee0b6" stroke="#fee0b6" stroke-width="0"/>
		<rect x="200" y="84" width="80" height="50" fill="none" rx="14" stroke="#e08214" stroke-width="2"/>
		<line x1="200" y1="109" x2="280" y2="109" stroke="#e08214" stroke-width="1"/>
		<text x="207" y="101.75" fill="#000000" font-family="Verdana" font-size="12">permission</text>
	</g>
	<text x="245" y="151" fill="#542788" font-family="Verdana" font-size="12">1,1</text>
	<text x="245" y="76" fill="#542788" font-family="Verdana" font-size="12">1,1</text>
</g>

<!-- Association ACHETE -->
<g>
	<line x1="240" y1="227" x2="65" y2="227" stroke="#e08214" stroke-width="2"/>
	<line x1="65" y1="328" x2="65" y2="227" stroke="#e08214" stroke-width="2"/>
	<g>
		<path d="M79 202 a14 14 90 0 1 14 14 V227 h-56 V216 a14 14 90 0 1 14 -14" fill="#fdb863" stroke="#fdb863" stroke-width="0"/>
		<path d="M93 227 v11 a14 14 90 0 1 -14 14 H51 a14 14 90 0 1 -14 -14 V227 H56" fill="#fee0b6" stroke="#fee0b6" stroke-width="0"/>
		<rect x="37" y="202" width="56" height="50" fill="none" rx="14" stroke="#e08214" stroke-width="2"/>
		<line x1="37" y1="227" x2="93" y2="227" stroke="#e08214" stroke-width="1"/>
		<text x="45" y="219.75" fill="#000000" font-family="Verdana" font-size="12">achète</text>
	</g>
	<text x="142" y="244" fill="#542788" font-family="Verdana" font-size="12">1,N</text>
	<text x="70" y="269" fill="#542788" font-family="Verdana" font-size="12">1,1</text>
</g>

<!-- Association CHOISI -->
<g>
	<line x1="240" y1="227" x2="414" y2="227" stroke="#e08214" stroke-width="2"/>
	<line x1="414" y1="328" x2="414" y2="227" stroke="#e08214" stroke-width="2"/>
	<g>
		<path d="M425 202 a14 14 90 0 1 14 14 V227 h-50 V216 a14 14 90 0 1 14 -14" fill="#fdb863" stroke="#fdb863" stroke-width="0"/>
		<path d="M439 227 v11 a14 14 90 0 1 -14 14 H403 a14 14 90 0 1 -14 -14 V227 H50" fill="#fee0b6" stroke="#fee0b6" stroke-width="0"/>
		<rect x="389" y="202" width="50" height="50" fill="none" rx="14" stroke="#e08214" stroke-width="2"/>
		<line x1="389" y1="227" x2="439" y2="227" stroke="#e08214" stroke-width="1"/>
		<text x="397" y="219.75" fill="#000000" font-family="Verdana" font-size="12">choisi</text>
	</g>
	<text x="316" y="244" fill="#542788" font-family="Verdana" font-size="12">1,N</text>
	<text x="419" y="303" fill="#542788" font-family="Verdana" font-size="12">1,1</text>
</g>

<!-- Association PRODUIT_ACHETE -->
<g>
	<line x1="240" y1="489" x2="65" y2="489" stroke="#e08214" stroke-width="2"/>
	<line x1="65" y1="328" x2="65" y2="489" stroke="#e08214" stroke-width="2"/>
	<g>
		<path d="M104 455 a14 14 90 0 1 14 14 V480 h-106 V469 a14 14 90 0 1 14 -14" fill="#fdb863" stroke="#fdb863" stroke-width="0"/>
		<path d="M118 480 v29 a14 14 90 0 1 -14 14 H26 a14 14 90 0 1 -14 -14 V480 H106" fill="#fee0b6" stroke="#fee0b6" stroke-width="0"/>
		<rect x="12" y="455" width="106" height="68" fill="none" rx="14" stroke="#e08214" stroke-width="2"/>
		<line x1="12" y1="480" x2="118" y2="480" stroke="#e08214" stroke-width="1"/>
		<text x="20" y="472.75" fill="#000000" font-family="Verdana" font-size="12">Produit_acheté</text>
		<text x="19" y="497.8" fill="#000000" font-family="Verdana" font-size="12">quantité</text>
		<text x="19" y="514.8" fill="#000000" font-family="Verdana" font-size="12">prix_unitaire</text>
	</g>
	<text x="123" y="506" fill="#542788" font-family="Verdana" font-size="12">1,N</text>
	<text x="70" y="396" fill="#542788" font-family="Verdana" font-size="12">0,N</text>
</g>

<!-- Association PRODUIT_PANIER -->
<g>
	<line x1="240" y1="489" x2="414" y2="489" stroke="#e08214" stroke-width="2"/>
	<line x1="414" y1="328" x2="414" y2="489" stroke="#e08214" stroke-width="2"/>
	<g>
		<path d="M452 464 a14 14 90 0 1 14 14 V489 h-104 V478 a14 14 90 0 1 14 -14" fill="#fdb863" stroke="#fdb863" stroke-width="0"/>
		<path d="M466 489 v11 a14 14 90 0 1 -14 14 H376 a14 14 90 0 1 -14 -14 V489 H104" fill="#fee0b6" stroke="#fee0b6" stroke-width="0"/>
		<rect x="362" y="464" width="104" height="50" fill="none" rx="14" stroke="#e08214" stroke-width="2"/>
		<line x1="362" y1="489" x2="466" y2="489" stroke="#e08214" stroke-width="1"/>
		<text x="370" y="481.75" fill="#000000" font-family="Verdana" font-size="12">Produit_Panier</text>
		<text x="369" y="506.8" fill="#000000" font-family="Verdana" font-size="12">quantité</text>
	</g>
	<text x="335" y="506" fill="#542788" font-family="Verdana" font-size="12">1,N</text>
	<text x="419" y="362" fill="#542788" font-family="Verdana" font-size="12">0,N</text>
</g>

<!-- Entity ROLE -->
<g>
	<g>
		<rect x="221" y="9" width="38" height="25" fill="#b2abd2" stroke="none" stroke-width="0" opacity="1"/>
		<rect x="221" y="34" width="38" height="25" fill="#d8daeb" stroke="none" stroke-width="0" opacity="1"/>
		<rect x="221" y="9" width="38" height="50" fill="none" stroke="#8073ac" stroke-width="2" opacity="1"/>
		<line x1="221" y1="34" x2="259" y2="34" stroke="#8073ac" stroke-width="1"/>
	</g>
	<text x="227" y="26.75" fill="#000000" font-family="Verdana" font-size="12">Role</text>
	<text x="226" y="51.8" fill="#000000" font-family="Verdana" font-size="12">nom</text>
	<line x1="226" y1="54" x2="254" y2="54" stroke="#000000" stroke-width="1"/>
</g>

<!-- Entity UTILISATEUR -->
<g>
	<g>
		<rect x="169" y="159" width="142" height="25" fill="#b2abd2" stroke="none" stroke-width="0" opacity="1"/>
		<rect x="169" y="184" width="142" height="111" fill="#d8daeb" stroke="none" stroke-width="0" opacity="1"/>
		<rect x="169" y="159" width="142" height="136" fill="none" stroke="#8073ac" stroke-width="2" opacity="1"/>
		<line x1="169" y1="184" x2="311" y2="184" stroke="#8073ac" stroke-width="1"/>
	</g>
	<text x="209" y="176.75" fill="#000000" font-family="Verdana" font-size="12">Utilisateur</text>
	<text x="174" y="201.8" fill="#000000" font-family="Verdana" font-size="12">uid_utilisateur</text>
	<line x1="174" y1="204" x2="261" y2="204" stroke="#000000" stroke-width="1"/>
	<text x="174" y="218.8" fill="#000000" font-family="Verdana" font-size="12">nom_complet</text>
	<text x="174" y="235.8" fill="#000000" font-family="Verdana" font-size="12">téléphone</text>
	<text x="174" y="252.8" fill="#000000" font-family="Verdana" font-size="12">mot_de_passe_haché</text>
	<text x="174" y="269.8" fill="#000000" font-family="Verdana" font-size="12">addresse</text>
</g>

<!-- Entity FACTURE -->
<g>
	<g>
		<rect x="9" y="277" width="112" height="25" fill="#b2abd2" stroke="none" stroke-width="0" opacity="1"/>
		<rect x="9" y="302" width="112" height="77" fill="#d8daeb" stroke="none" stroke-width="0" opacity="1"/>
		<rect x="9" y="277" width="112" height="102" fill="none" stroke="#8073ac" stroke-width="2" opacity="1"/>
		<line x1="9" y1="302" x2="121" y2="302" stroke="#8073ac" stroke-width="1"/>
	</g>
	<text x="42" y="294.75" fill="#000000" font-family="Verdana" font-size="12">Facture</text>
	<text x="14" y="319.8" fill="#000000" font-family="Verdana" font-size="12">uid_facture</text>
	<line x1="14" y1="322" x2="83" y2="322" stroke="#000000" stroke-width="1"/>
	<text x="14" y="336.8" fill="#000000" font-family="Verdana" font-size="12">prix_total</text>
	<text x="14" y="353.8" fill="#000000" font-family="Verdana" font-size="12">date</text>
	<text x="14" y="370.8" fill="#000000" font-family="Verdana" font-size="12">status_paiement</text>
</g>

<!-- Entity PANIER -->
<g>
	<g>
		<rect x="389" y="311" width="50" height="25" fill="#b2abd2" stroke="none" stroke-width="0" opacity="1"/>
		<rect x="389" y="336" width="50" height="9" fill="#d8daeb" stroke="none" stroke-width="0" opacity="1"/>
		<rect x="389" y="311" width="50" height="34" fill="none" stroke="#8073ac" stroke-width="2" opacity="1"/>
		<line x1="389" y1="336" x2="439" y2="336" stroke="#8073ac" stroke-width="1"/>
	</g>
	<text x="395" y="328.75" fill="#000000" font-family="Verdana" font-size="12">Panier</text>
</g>

<!-- Entity PRODUIT -->
<g>
	<g>
		<rect x="150" y="404" width="180" height="25" fill="#b2abd2" stroke="none" stroke-width="0" opacity="1"/>
		<rect x="150" y="429" width="180" height="145" fill="#d8daeb" stroke="none" stroke-width="0" opacity="1"/>
		<rect x="150" y="404" width="180" height="170" fill="none" stroke="#8073ac" stroke-width="2" opacity="1"/>
		<line x1="150" y1="429" x2="330" y2="429" stroke="#8073ac" stroke-width="1"/>
	</g>
	<text x="218" y="421.75" fill="#000000" font-family="Verdana" font-size="12">Produit</text>
	<text x="155" y="446.8" fill="#000000" font-family="Verdana" font-size="12">uid_produit</text>
	<line x1="155" y1="449" x2="225" y2="449" stroke="#000000" stroke-width="1"/>
	<text x="155" y="463.8" fill="#000000" font-family="Verdana" font-size="12">nom</text>
	<text x="155" y="480.8" fill="#000000" font-family="Verdana" font-size="12">prix</text>
	<text x="155" y="497.8" fill="#000000" font-family="Verdana" font-size="12">marque</text>
	<text x="155" y="514.8" fill="#000000" font-family="Verdana" font-size="12">URL_image</text>
	<text x="155" y="531.8" fill="#000000" font-family="Verdana" font-size="12">catégories</text>
	<text x="155" y="548.8" fill="#000000" font-family="Verdana" font-size="12">informations_nutritionnelles</text>
	<text x="155" y="565.8" fill="#000000" font-family="Verdana" font-size="12">stock</text>
</g>
</svg>